# xmcd
# 
# Track frame offsets:
#     183
#     33623
#     55245
# 
# Disc length: 1102
# 
# Revision: 4
# Processed by: cddbd v1.5.2PL0 Copyright (c) Steve Scherf et al.
# Submitted via: fre:ac v1.0.31
# 
DISCID=22044c03
DTITLE=Metallica - One (Single)
DYEAR=1988
DGENRE=Rock
TTITLE0=One
TTITLE1=For Whom The Bell Tolls (Live)
TTITLE2=Welcome Home (Sanitarium) (Live)
EXTD=
EXTT0=
EXTT1=Recorded Live At Reunion Arena Dalls, Texas 5th February 1989
EXTT2=Recorded Live At Reunion Arena Dalls, Texas 5th February 1989
PLAYORDER=
